<svg width="64" height="64" viewBox="0 0 64 64" fill="none" xmlns="http://www.w3.org/2000/svg">
  <circle cx="32" cy="32" r="28" fill="#F4F9FF"/>
  <path d="M16 22C16 18.6863 18.6863 16 22 16H43C46.3137 16 49 18.6863 49 22V35C49 38.3137 46.3137 41 43 41H33L23 49V41H22C18.6863 41 16 38.3137 16 35V22Z" stroke="#101828" stroke-width="3" stroke-linejoin="round"/>
  <path d="M25 29H25.2" stroke="#2177FF" stroke-width="5" stroke-linecap="round"/>
  <path d="M32 29H32.2" stroke="#2177FF" stroke-width="5" stroke-linecap="round"/>
  <path d="M39 29H39.2" stroke="#2177FF" stroke-width="5" stroke-linecap="round"/>
  <path d="M45 47L47 51L51 53L47 55L45 59L43 55L39 53L43 51L45 47Z" fill="#2177FF"/>
</svg>
